<?xml version="1.0" encoding="UTF-8" standalone="no"?>
<svg width="1430px" height="560px" viewBox="0 0 1430 560" version="1.1" xmlns="http://www.w3.org/2000/svg" xmlns:xlink="http://www.w3.org/1999/xlink">
    <!-- Generator: Sketch 47.1 (45422) - http://www.bohemiancoding.com/sketch -->
    <title>BG</title>
    <desc>Created with Sketch.</desc>
    <defs>
        <rect id="path-1" x="0" y="0" width="1453" height="560"></rect>
    </defs>
    <g id="Page-1" stroke="none" stroke-width="1" fill="none" fill-rule="evenodd">
        <g id="home_page-copy-7" transform="translate(0.000000, -120.000000)">
            <g id="BG" transform="translate(-23.000000, 120.000000)">
                <g id="Group-3">
                    <mask id="mask-2" fill="white">
                        <use xlink:href="#path-1"></use>
                    </mask>
                    <use id="Mask" fill="#94CCB9" xlink:href="#path-1"></use>
                    <g id="Page-1" opacity="0.392040308" mask="url(#mask-2)" fill="#AAE2CE">
                        <g transform="translate(-9.000000, -252.000000)">
                            <path d="M0,783.614037 L0,741.105954 C1.64962369,741.031427 2.25801904,740.181266 3.12810168,739.575111 C13.1864999,732.565142 23.190242,725.528122 33.2409111,718.514841 C53.3416972,704.487726 73.5203271,690.499254 93.5106966,676.417486 C96.2976111,674.454385 98.0317034,674.776784 100.409524,676.48318 C105.449489,680.101888 110.628579,683.652693 115.743075,687.234413 C147.536425,709.497055 179.340264,731.75528 211.114843,754.026755 C228.757204,766.392191 246.39294,778.760939 263.95304,791.167226 C279.616736,802.233681 295.252828,813.314489 310.701764,824.48473 C313.597439,826.578115 314.890417,825.96368 317.253332,824.247347 C329.519509,815.336107 341.886166,806.471792 354.399125,797.681452 C370.616008,786.289286 387.035505,774.998145 403.308149,763.63303 C419.379282,752.40924 435.369811,741.144598 451.40561,729.903143 C467.43865,718.663343 483.470585,707.422992 499.528468,696.195889 C508.966325,689.596648 518.491411,683.041018 527.894487,676.424663 C530.402048,674.660853 532.011369,674.621657 534.709951,676.526792 C557.362464,692.519216 580.250716,708.395709 602.99598,724.342312 C626.941471,741.130797 650.833963,757.945228 674.700506,774.772356 C697.372342,790.757603 720.003324,806.763828 742.598421,822.786063 C747.986198,826.606822 747.715677,826.570386 753.278465,822.583459 C766.827683,812.870638 780.507745,803.222408 794.218724,793.588531 C810.730971,781.988241 827.319958,770.424938 843.893486,758.855011 C859.767526,747.773651 875.672482,736.707748 891.55149,725.629148 C906.526739,715.179889 921.495362,704.727869 936.450184,694.268672 C944.881042,688.372746 953.309691,682.47406 961.672643,676.543354 C964.178547,674.766295 966.325598,674.215346 968.828189,676.562676 C970.227167,677.874354 972.049593,679.034217 973.762706,680.222235 C990.804953,692.043899 1007.95154,703.813669 1024.89718,715.683361 C1050.16546,733.382181 1075.16156,751.215701 1100.52149,768.868149 C1126.89283,787.223911 1152.87441,805.767924 1178.64564,824.415171 C1181.03008,826.140337 1182.73381,826.248539 1185.13261,824.478657 C1190.96647,820.17706 1196.93725,815.940053 1202.92072,811.710223 C1218.47897,800.711119 1234.03998,789.713119 1249.66282,778.746585 C1265.18574,767.849059 1280.75834,756.976375 1296.3602,746.118044 C1309.74655,736.802701 1323.24885,727.545876 1336.62085,718.223357 C1356.52454,704.347504 1376.41112,690.463371 1396.16023,676.510783 C1398.82016,674.631594 1400.46868,674.698393 1402.97017,676.489253 C1411.08799,682.299059 1419.35875,688.033786 1427.58147,693.792251 C1445.52637,706.359737 1463.44974,718.938265 1481.44654,731.479806 C1486.15415,734.761209 1490.36931,738.309254 1496,741.105954 L1496,783.614037 C1494.7545,783.643848 1494.04563,783.167978 1493.32958,782.662297 C1478.45867,772.161697 1463.56071,761.673794 1448.70582,751.164912 C1433.1553,740.1636 1417.62742,729.151798 1402.1426,718.117915 C1400.50401,716.950875 1399.30379,716.630684 1397.41677,717.970517 C1381.10216,729.551485 1364.76161,741.120308 1348.3515,752.653799 C1330.83722,764.962374 1313.26167,777.240033 1295.66954,789.509411 C1279.08277,801.07713 1262.42256,812.608413 1245.82419,824.170612 C1225.70242,838.186686 1205.62979,852.226498 1185.4887,866.232083 C1181.99402,868.662773 1181.79085,868.556226 1178.30059,866.102351 C1163.69634,855.832508 1149.03467,845.591373 1134.3835,835.344717 C1120.43567,825.589388 1106.46135,815.847308 1092.52181,806.087563 C1076.27677,794.713615 1060.03836,783.336906 1043.83252,771.943636 C1029.92941,762.169537 1016.05943,752.379429 1002.20602,742.58104 C990.742568,734.471933 979.291816,726.356202 967.916148,718.204587 C966.029681,716.852609 964.721245,716.487702 962.522298,718.054981 C942.371273,732.41388 922.204789,746.76505 901.892555,761.043901 C878.475959,777.50557 854.906988,793.891056 831.403715,810.310217 C816.541091,820.693782 801.674051,831.076243 786.8175,841.462568 C774.872083,849.814026 762.895749,858.150579 751.036456,866.543993 C748.593489,868.273023 747.078022,868.216714 744.607451,866.456217 C733.785522,858.749004 722.675958,851.182014 711.752445,843.52283 C678.977492,820.543623 646.216341,797.556136 613.497701,774.548222 C596.59237,762.65976 579.778686,750.72603 562.94347,738.802789 C553.379186,732.029099 543.819318,725.252096 534.338399,718.437553 C532.131171,716.850953 530.657662,716.657182 528.355476,718.501592 C524.761969,721.3811 520.650055,724.034819 516.744621,726.77797 C490.711152,745.059206 464.720194,763.360868 438.623787,781.611188 C417.345408,796.491778 395.899748,811.289559 374.603703,826.161315 C355.317791,839.630304 336.121317,853.143458 316.923186,866.656612 C314.74025,868.192423 313.278887,868.399443 310.808316,866.625145 C301.223053,859.742148 291.287769,853.029735 281.560068,846.215193 C251.980571,825.494987 222.398313,804.775885 192.88893,784.0209 C161.57534,761.997849 130.328001,739.941123 99.1165463,717.866179 C97.3852144,716.642277 96.5979442,716.443538 94.6816644,717.82367 C84.3251414,725.283563 73.7671081,732.64519 63.2791894,740.041044 C43.2043511,754.197892 23.1306171,768.355291 3.05136216,782.509931 C2.25139405,783.073577 1.44700927,783.660961 0,783.614037" id="Fill-1"></path>
                            <path d="M0,206.527106 L0,164.05271 C1.99522758,163.972726 2.79133112,163.015673 3.86292402,162.241756 C7.11027561,159.896287 10.3443772,157.544198 13.6618433,155.234584 C40.4179888,136.604873 67.2359675,118.006052 93.8872171,99.3244892 C96.3517152,97.5968294 97.8881619,97.654749 100.009816,99.2527792 C100.680597,99.7575074 101.503753,100.191077 102.203794,100.683118 C125.908025,117.349078 149.562569,134.039861 173.315935,150.68155 C197.471218,167.604011 221.81697,184.432697 245.90269,201.390462 C267.884975,216.86769 289.66851,232.442555 311.416159,248.033968 C313.574251,249.581249 314.673448,249.131131 316.325832,247.930264 C319.758132,245.434755 323.37041,243.025299 326.767376,240.513793 C352.200731,221.714736 379.013741,203.596372 405.199033,185.168552 C423.391268,172.366659 441.906472,159.723631 460.175999,146.960351 C482.463586,131.388797 504.631922,115.758771 526.886384,100.170667 C530.941433,97.3309507 531.275995,97.3463959 535.241606,100.100612 C551.057125,111.085484 566.896935,122.057117 582.630746,133.081705 C608.484788,151.196759 634.269267,169.347116 660.071966,187.487544 C679.171825,200.917176 698.281623,214.341843 717.330691,227.796297 C726.105497,233.994249 734.743386,240.259498 743.444764,246.493857 C747.452886,249.365016 747.648875,249.394252 751.864028,246.436489 C762.078114,239.268245 772.185095,232.047598 782.412983,224.886525 C803.763685,209.938848 825.145855,195.006064 846.550661,180.084864 C866.15126,166.421347 885.835776,152.799753 905.415396,139.125204 C924.391037,125.87209 943.297116,112.584775 962.182215,99.2869794 C964.393859,97.7297687 966.004285,97.5642841 968.407502,99.254434 C986.702977,112.126382 1005.15359,124.922208 1023.49102,137.773746 C1049.3412,155.891558 1075.17923,174.01599 1100.94163,192.176828 C1126.40369,210.126397 1151.77245,228.12175 1177.16606,246.10552 C1182.1867,249.661234 1182.17345,249.626482 1187.12784,246.041532 C1195.87394,239.712847 1204.71168,233.42774 1213.60684,227.171868 C1227.50663,217.396138 1241.49199,207.664537 1255.42877,197.907561 C1269.66478,187.942075 1283.85718,177.954525 1298.12079,168.002277 C1316.29978,155.317878 1334.54888,142.668231 1352.73338,129.98659 C1367.00362,120.034894 1381.18884,110.040172 1395.48448,100.100612 C1399.57707,97.2553794 1399.86967,97.334812 1403.79222,100.130399 C1409.74478,104.374529 1415.74426,108.59494 1421.75258,112.811489 C1441.07714,126.37406 1460.29459,139.991241 1479.82508,153.449005 C1485.05716,157.054364 1489.47659,161.123632 1496,164.05271 L1496,206.527106 C1494.1301,206.561306 1493.36601,205.678721 1492.3833,204.99196 C1483.05034,198.470209 1473.67046,191.971627 1464.40982,185.415125 C1443.79118,170.81662 1423.16978,156.219218 1402.7267,141.535213 C1400.0491,139.612281 1398.90076,139.94987 1396.54061,141.64002 C1381.70283,152.264686 1366.73973,162.829227 1351.71645,173.363429 C1335.78554,184.533643 1319.72766,195.640422 1303.75093,206.787468 C1282.35275,221.716391 1260.99763,236.66793 1239.58786,251.590785 C1221.39949,264.268564 1203.09518,276.888976 1185.01999,289.622469 C1182.6913,291.262422 1181.65228,291.45659 1179.25017,289.738308 C1169.25471,282.587164 1159.03124,275.546895 1148.90272,268.460842 C1133.05905,257.376128 1117.22034,246.288656 1101.38716,235.198426 C1085.65335,224.178251 1069.93003,213.15256 1054.19898,202.13073 C1040.07228,192.233093 1025.89976,182.358071 1011.82385,172.43506 C997.148938,162.090062 982.548553,151.708658 967.960315,141.321186 C965.91264,139.862714 964.620213,139.718191 962.323549,141.372486 C948.027914,151.66839 933.560582,161.882103 919.058468,172.078164 C903.357231,183.115991 887.557723,194.104724 871.796308,205.112764 C856.935341,215.490858 842.068852,225.866746 827.20126,236.240979 C812.634553,246.40615 798.061221,256.568012 783.494513,266.733182 C772.647189,274.302451 761.781093,281.862893 750.980143,289.455329 C748.642072,291.098592 747.131022,291.223809 744.528503,289.370932 C727.855599,277.495753 710.956894,265.731449 694.097387,253.947838 C668.102011,235.778174 641.998428,217.662017 616.089178,199.449878 C589.58423,180.819064 563.264782,162.096681 536.848168,143.422289 C531.141839,139.388325 531.273235,139.483203 525.548687,143.552471 C507.465764,156.408422 489.30058,169.223554 471.070803,182.006692 C454.242212,193.806852 437.291059,205.546885 420.390698,217.311189 C407.513916,226.274942 394.612843,235.226007 381.756489,244.20024 C369.104405,253.032156 356.511394,261.892756 343.863727,270.726327 C334.628484,277.175816 325.328648,283.593311 316.104447,290.048316 C314.467521,291.194021 313.425189,291.428458 311.491242,290.065416 C296.314484,279.369039 280.960506,268.759818 265.709216,258.099296 C237.313385,238.250515 208.896574,218.411111 180.587419,198.518751 C153.880409,179.75224 127.299274,160.922292 100.664035,142.119925 C96.823194,139.408735 96.8248502,139.406528 92.9094783,142.11827 C92.5059057,142.397939 92.1315935,142.69195 91.7335418,142.974929 C80.1094364,151.239233 68.5245289,159.522292 56.849632,167.761773 C39.6892393,179.87194 22.4780551,191.957285 5.23926667,204.029391 C3.79612199,205.03995 2.74219574,206.42616 0,206.527106" id="Fill-3"></path>
                            <path d="M1496,575.945343 L1496,618.408475 C1493.88828,618.534762 1493.02372,617.516198 1491.96593,616.782744 C1483.19885,610.701693 1474.42902,604.621744 1465.77181,598.486097 C1444.48459,583.399553 1423.22278,568.300325 1402.0642,553.150361 C1400.02977,551.693931 1399.15748,551.834556 1397.26605,553.196685 C1384.94521,562.070376 1372.58353,570.92587 1360.03082,579.685959 C1331.61069,599.517345 1303.0393,619.273179 1274.59212,639.09133 C1244.635,659.961132 1214.7375,680.860714 1184.86154,701.771325 C1182.7697,703.235476 1181.56836,703.389336 1179.24023,701.742097 C1157.62066,686.450406 1135.85424,671.229303 1114.07844,656.014267 C1089.58915,638.904382 1064.97398,621.857364 1040.54762,604.716045 C1016.92399,588.138328 993.480347,571.472376 969.934011,554.856607 C965.006671,551.379593 965.000599,551.42316 960.133988,554.886938 C943.65873,566.615035 927.251931,578.376219 910.632579,590.032625 C888.00491,605.901704 865.18898,621.678137 842.484571,637.509716 C811.941137,658.807458 781.367338,680.090863 750.99505,701.47298 C748.104344,703.50735 746.660647,703.116359 744.379992,701.426105 C740.410516,698.482914 736.357124,695.577222 732.243554,692.703516 C711.268821,678.052081 690.227838,663.433734 669.276844,648.770167 C645.122665,631.864325 620.991122,614.948006 596.938526,597.992532 C576.272407,583.424369 555.716705,568.80161 535.1472,554.185469 C531.289245,551.443564 531.388068,551.44577 527.558821,554.214697 C518.218682,560.966886 508.889586,567.726797 499.379958,574.395714 C485.666219,584.013889 471.766428,593.538315 458.002449,603.131123 C444.236814,612.724482 430.581044,622.372436 416.802711,631.959178 C400.000068,643.649775 383.08204,655.283018 366.283813,666.97527 C349.992399,678.315683 333.818027,689.71345 317.525508,701.052209 C313.771897,703.665071 313.609032,703.622056 309.977431,701.0864 C289.502885,686.787354 269.017297,672.493271 248.594094,658.168306 C223.261219,640.399966 197.979687,622.606259 172.688217,604.818067 C148.501465,587.807446 124.282693,570.811164 100.214087,553.742088 C97.3785894,551.730879 95.7355907,551.932166 93.2009781,553.825911 C86.7438166,558.649613 80.1127489,563.393903 73.427025,568.108965 C52.4638854,582.892752 31.542152,597.696945 10.3355439,612.358306 C7.23118176,614.504624 5.21883961,617.463257 0,618.408475 L0,576.496812 C6.19105759,573.006563 11.3480639,568.97808 16.8733095,565.145369 C33.1961924,553.823705 49.3998254,542.441931 65.6686041,531.092694 C75.11143,524.505945 84.6464536,517.963314 94.0158525,511.340168 C96.3616527,509.6819 97.7043183,509.77179 100.009264,511.466455 C106.819207,516.474898 113.963712,521.326174 120.998904,526.227632 C140.197035,539.603519 159.44154,552.955693 178.602681,566.349226 C201.676986,582.478599 224.752395,598.60742 247.70248,614.798006 C268.55962,629.513412 289.264385,644.303266 309.997858,659.079333 C313.554376,661.614437 313.896668,661.63429 317.437727,659.084847 C327.099178,652.129717 336.72916,645.159697 346.516485,638.267435 C360.702255,628.278672 375.026046,618.358292 389.273097,608.400411 C405.429251,597.107424 421.542342,585.793481 437.718371,574.510971 C453.995983,563.158425 470.358064,551.848894 486.627395,540.491936 C500.587915,530.746371 514.49654,520.974336 528.355476,511.179139 C530.366162,509.757452 531.970515,509.654878 533.855878,511.157632 C534.500711,511.67105 535.360304,512.089064 536.060345,512.580974 C559.876649,529.307588 583.64713,546.056812 607.505945,562.76247 C631.76778,579.749378 656.20076,596.65191 680.398554,613.670803 C701.896662,628.790436 723.25454,643.980105 744.457284,659.243671 C747.375042,661.344217 748.882228,660.836865 751.139695,659.155987 C772.299377,643.397753 794.831536,628.316172 816.742602,612.929077 C841.361082,595.641619 866.260573,578.492579 890.98947,561.259165 C914.911222,544.588801 938.801505,527.902444 962.605663,511.173625 C964.676526,509.718297 965.804431,509.608555 967.899586,511.110757 C974.914351,516.141811 982.131179,521.074704 989.265746,526.047302 C1005.3424,537.250951 1021.45052,548.439159 1037.48246,559.665419 C1056.42608,572.931012 1075.31228,586.22473 1094.20456,599.51569 C1112.89477,612.664923 1131.58112,625.816913 1150.22993,638.985999 C1160.10614,645.960982 1169.92604,652.962987 1179.70398,659.985397 C1181.30723,661.136313 1182.35011,661.516275 1184.2951,660.113338 C1207.84144,643.135805 1231.68203,626.304412 1255.82959,609.621364 C1278.55387,593.921586 1300.91378,578.038169 1323.489,562.262288 C1347.57638,545.430895 1371.73497,528.635347 1395.84499,511.814983 C1399.37776,509.349916 1399.78189,509.38521 1403.44827,511.985939 C1412.30479,518.266071 1421.25018,524.503739 1430.16964,530.75354 C1447.80592,543.111415 1465.36658,555.507892 1483.15248,567.790767 C1487.2263,570.603812 1490.39415,573.957848 1496,575.945343" id="Fill-5"></path>
                            <path d="M0,371.81749 L0,329.333087 C1.80972773,328.877897 2.84709149,327.919515 4.03959054,327.090242 C10.1748878,322.818628 16.2246121,318.505082 22.3543885,314.231261 C45.074808,298.392855 67.8416024,282.577622 90.529449,266.723215 C97.2035791,262.058758 97.0489959,262.04331 103.783303,266.78501 C129.463439,284.86571 155.146887,302.945307 180.905971,320.986833 C205.060702,337.905557 229.414735,354.724967 253.489965,371.682864 C272.673742,385.195112 291.590862,398.84033 310.563191,412.456305 C312.6462,413.950432 314.389125,414.546869 316.597457,412.63176 C317.117519,412.179329 317.858966,411.818487 318.45632,411.394747 C335.471515,399.326417 352.40721,387.218362 369.511842,375.194173 C389.619253,361.059005 409.867998,346.99446 430.062638,332.90288 C445.838407,321.895006 461.628529,310.893752 477.404298,299.885878 C494.179889,288.180597 511.01124,276.502352 527.652675,264.730862 C530.447871,262.753406 532.26588,262.800856 534.937409,264.685067 C554.508747,278.487532 574.173388,292.242548 593.788341,306.022943 C617.604093,322.754625 641.254772,339.569621 665.243878,356.213576 C692.162336,374.890713 718.758929,393.725097 745.112606,412.67921 C747.39823,414.32286 748.532208,413.895809 750.348009,412.613001 C761.915249,404.442202 773.140751,396.105879 784.998387,388.073016 C798.179919,379.143015 810.933033,369.992868 823.894284,360.949207 C840.368989,349.454142 856.886205,337.980594 873.345453,326.477804 C887.096181,316.868604 900.758577,307.215265 914.518139,297.61048 C929.786543,286.953515 945.168125,276.352829 960.397331,265.676002 C965.059671,262.407462 965.70064,262.316424 970.456834,265.646759 C993.821534,282.007117 1017.17851,298.370785 1040.52885,314.737763 C1063.37349,330.749969 1086.27941,346.732933 1109.02522,362.794244 C1132.1724,379.138601 1155.16886,395.556892 1178.20231,411.957527 C1182.12652,414.752118 1182.13038,414.740531 1186.18488,411.808556 C1195.82756,404.837251 1205.48791,397.87312 1215.27523,390.972439 C1231.34637,379.640138 1247.51246,368.355287 1263.65978,357.060505 C1279.2114,346.181739 1294.77959,335.310698 1310.35881,324.445725 C1325.13366,314.14243 1339.95708,303.863411 1354.71426,293.551288 C1368.6676,283.801393 1382.58119,274.031084 1396.46387,264.245878 C1398.6043,262.737405 1399.97898,262.430083 1402.44569,264.269603 C1409.10546,269.23476 1416.21408,273.989703 1423.13555,278.833477 C1439.48162,290.270609 1455.7791,301.73257 1472.1848,313.139908 C1480.02051,318.588947 1487.43167,324.258684 1496,329.333087 L1496,371.265745 C1493.17665,371.251951 1492.19394,369.804723 1490.75024,368.807167 C1483.1718,363.572206 1475.67065,358.297519 1468.19379,353.011797 C1446.95737,337.999353 1425.71157,322.992428 1404.55023,307.943017 C1399.57486,304.405225 1399.73275,304.394742 1394.91969,307.844807 C1383.24977,316.208717 1371.50034,324.535108 1359.68632,332.828946 C1343.37116,344.283183 1326.98148,355.699349 1310.60007,367.120481 C1294.41576,378.404228 1278.22152,389.682458 1261.9958,400.945239 C1250.40813,408.989136 1238.70342,416.974549 1227.15551,425.038309 C1213.19664,434.784893 1199.29795,444.562927 1185.49478,454.386204 C1182.80503,456.300761 1181.11897,456.282553 1178.38229,454.333788 C1161.20644,442.106556 1143.86662,429.959327 1126.53232,417.809891 C1109.59773,405.941294 1092.59524,394.10525 1075.63911,382.246584 C1059.98756,371.300505 1044.31007,360.367116 1028.73084,349.385725 C1008.95633,335.446427 989.298871,321.449747 969.523262,307.511553 C965.004463,304.326326 964.874724,304.450468 960.42604,307.647282 C946.304863,317.79333 932.168229,327.932205 917.883084,337.997698 C899.90064,350.66743 881.766373,363.261573 863.696148,375.887717 C844.524517,389.282994 825.363928,402.683237 806.174079,416.069686 C788.086187,428.687554 769.937014,441.276179 751.881143,453.909496 C747.90449,456.6925 747.774198,456.717329 743.738472,453.860942 C734.374594,447.232824 724.934529,440.641672 715.519307,434.038382 C699.394622,422.729254 683.263864,411.422886 667.138075,400.11431 C653.516533,390.562492 639.899961,381.007915 626.277867,371.456649 C609.950568,360.009033 593.576893,348.584591 577.303146,337.110491 C563.120688,327.111208 549.082877,317.040197 534.904836,307.038707 C531.263849,304.470883 531.046328,304.594474 527.4473,307.162298 C512.974447,317.490422 498.507115,327.822408 483.885751,338.07715 C467.459077,349.598147 450.835309,361.022038 434.357291,372.517655 C414.767733,386.18384 395.257676,399.889749 375.684681,413.563658 C356.206644,427.171909 336.609358,440.721123 317.287009,454.405515 C314.499542,456.379661 312.99346,456.190964 310.580858,454.449655 C304.5753,450.112935 298.47644,445.820355 292.349976,441.542121 C264.62879,422.183026 236.886072,402.834415 209.149428,383.483597 C191.766546,371.355679 174.28981,359.274108 157.018448,347.091568 C137.853443,333.573803 118.838052,319.981001 99.8546812,306.373302 C97.3222769,304.558059 95.897351,304.82069 93.586884,306.544894 C86.9304206,311.512259 80.0006761,316.352722 73.1162024,321.211945 C52.654354,335.653332 32.2460577,350.121202 11.6053345,364.472654 C7.95330619,367.012339 5.16970423,370.092734 0,371.81749" id="Fill-7"></path>
                            <path d="M0,700.891897 L0,658.460185 C2.03442547,657.873305 3.31304945,656.799287 4.70374627,655.827215 C13.926291,649.378146 23.0417317,642.875624 32.2913285,636.43978 C52.1061357,622.653882 72.0153491,608.915376 91.8097292,595.119559 C97.8412348,590.915513 96.210382,591.010295 102.109388,595.103578 C124.872318,610.898094 147.413862,626.803924 170.09398,642.639219 C192.872368,658.544498 215.832391,674.360505 238.504227,690.318135 C262.370771,707.117236 285.986117,724.040325 309.721817,740.9039 C313.522355,743.604099 313.879553,743.622285 317.595071,740.976089 C336.739097,727.34063 355.752832,713.6418 375.282213,700.192601 C395.211853,686.46732 414.845577,672.592701 434.628363,658.793026 C451.395121,647.096753 468.18893,635.413704 484.971698,623.725696 C499.643301,613.50792 514.36404,603.314941 528.931851,593.046466 C530.864141,591.684243 532.013026,591.878217 533.605233,593.05363 C536.031637,594.844579 538.466875,596.632222 540.976643,598.382392 C562.069523,613.091868 583.211537,627.776547 604.277916,642.499249 C630.456583,660.795032 656.641875,679.088059 682.702396,697.441703 C703.369067,711.997985 723.889988,726.626455 744.365638,741.276417 C746.646293,742.908109 748.324625,743.476804 750.633435,741.469288 C751.328508,740.864223 752.171538,740.317571 752.960465,739.750529 C761.839062,733.368138 770.591232,726.921824 779.629933,720.619337 C794.997161,709.903952 810.601784,699.307596 826.003792,688.609846 C847.745921,673.508565 869.394195,658.359892 891.084428,643.233263 C905.945395,632.868904 920.804707,622.503443 935.675611,612.143492 C944.720938,605.842658 953.827545,599.571031 962.813246,593.239889 C964.685911,591.920097 966.06115,591.829723 967.912836,593.206274 C970.231032,594.929994 972.786624,596.542399 975.193705,598.22534 C1004.96367,619.052146 1034.72977,639.880606 1064.48594,660.714026 C1081.9174,672.918929 1099.38806,685.105096 1116.73451,697.35188 C1137.2731,711.853056 1157.67863,726.419256 1178.18465,740.936412 C1182.21706,743.790909 1182.23307,743.70825 1186.15838,740.852651 C1195.16561,734.297227 1204.1342,727.721965 1213.34129,721.265181 C1231.15535,708.771521 1249.14497,696.365481 1267.0192,683.901579 C1286.60434,670.244078 1306.1144,656.549105 1325.70561,642.894911 C1349.41647,626.370239 1373.20903,609.886346 1396.86247,593.333018 C1398.9488,591.872706 1400.00327,591.830274 1402.07966,593.303261 C1411.12443,599.72092 1420.38231,606.034428 1429.50934,612.41241 C1445.85541,623.835909 1462.10818,635.305696 1478.5183,646.696682 C1484.24063,650.669282 1489.49867,654.888758 1496,658.460185 L1496,700.891897 C1491.99519,699.520857 1489.65988,697.201992 1486.80285,695.193925 C1468.00664,681.983335 1449.25017,668.752355 1430.51082,655.512559 C1421.44121,649.10482 1412.44667,642.66071 1403.39803,636.2425 C1399.91715,633.773195 1399.24913,633.789176 1395.76217,636.361529 C1393.82105,637.793738 1391.99918,639.283807 1389.99456,640.683502 C1368.81666,655.469025 1347.60067,670.235812 1326.41891,685.019131 C1305.03894,699.940766 1283.69321,714.880035 1262.31546,729.803323 C1248.96388,739.12287 1235.5836,748.428089 1222.21381,757.738819 C1210.05198,766.20863 1197.87027,774.669623 1185.73659,783.15321 C1183.49127,784.723735 1181.81735,785.765791 1178.61196,783.506441 C1152.15725,764.864591 1125.50821,746.318627 1098.95413,727.725271 C1072.40004,709.132467 1045.86087,690.533049 1019.36696,671.909936 C1002.37275,659.964031 985.410551,648.001595 968.59521,635.968072 C965.828723,633.987558 964.259703,634.070768 961.566643,635.986257 C939.729556,651.51461 917.820146,667.009349 895.79756,682.447328 C874.970785,697.048246 853.948572,711.552176 833.071557,726.127745 C807.077286,744.275843 781.15313,762.458658 755.178182,780.616125 C748.098271,785.565205 748.065698,785.548673 740.717475,780.654699 C740.511548,780.517485 740.2736,780.3957 740.073194,780.256282 C724.431029,769.321023 708.778927,758.391276 693.153325,747.447751 C675.825651,735.312282 658.532759,723.158076 641.203981,711.023709 C624.9744,699.658622 608.642131,688.343683 592.490394,676.941125 C572.74791,663.002583 553.133509,649.000669 533.508618,635.004817 C532.060505,633.971577 531.111474,633.847037 529.556257,634.945853 C513.313978,646.426662 497.040783,657.892041 480.715691,669.332072 C464.494392,680.698811 448.220644,692.040753 431.938615,703.378286 C412.135954,717.166939 392.285814,730.932447 372.482048,744.720549 C353.679209,757.81211 334.887411,770.908631 316.162968,784.038215 C314.375323,785.291328 313.302074,785.343127 311.499524,784.056951 C304.563154,779.10787 297.466681,774.23704 290.443634,769.32984 C274.190866,757.973571 257.948035,746.612894 241.699131,735.25442 C224.343853,723.122808 206.97919,710.995604 189.633297,698.859584 C173.697425,687.709412 157.742229,676.569158 141.867637,665.389229 C127.684076,655.401245 113.579462,645.374686 99.4952752,635.337658 C97.6413808,634.016764 96.3925693,633.675657 94.1941752,635.238467 C66.979801,654.582368 39.7328539,673.910288 12.2976465,693.14563 C8.45735787,695.838666 5.30220412,698.979164 0,700.891897" id="Fill-9"></path>
                            <path d="M0,455.232435 L0,412.611061 C4.00812182,411.203448 6.31085957,408.826061 9.21315935,406.812893 C24.0636371,396.516234 38.7926567,386.158686 53.5498325,375.814424 C67.3033216,366.17369 81.0507377,356.530743 94.7666852,346.87119 C96.3191423,345.778533 97.4067456,345.640705 99.094463,346.876725 C104.080876,350.530539 109.26383,354.089147 114.387159,357.677092 C132.267468,370.196152 150.178141,382.700266 168.03195,395.232611 C185.485499,407.483211 202.873901,419.76647 220.308679,432.02648 C234.336554,441.890284 248.46049,451.707038 262.41549,461.606821 C278.661081,473.131197 294.813922,484.70207 310.88892,496.310029 C313.237481,498.006028 314.426667,497.931855 316.771915,496.238624 C332.462663,484.916284 348.306338,473.667563 364.189763,462.439875 C378.776345,452.129377 393.466719,441.869804 408.129489,431.597499 C422.385373,421.609152 436.662789,411.630769 450.933027,401.649065 C463.996965,392.512039 477.066423,383.378334 490.128705,374.2402 C502.692455,365.451341 515.288226,356.677427 527.777998,347.851481 C530.229246,346.119504 531.808755,345.881488 534.561992,347.832108 C552.313666,360.408181 570.329787,372.854175 588.163721,385.389287 C612.014254,402.153326 635.795224,418.952789 659.575091,435.751699 C687.052257,455.162137 714.500162,474.586966 741.949724,494.010689 C747.923813,498.237954 747.781927,498.190351 753.826131,493.788172 C763.051436,487.06894 772.37722,480.395651 781.815629,473.780482 C797.27395,462.945243 812.885751,452.186944 828.378301,441.368311 C842.560758,431.465207 856.658195,421.518374 870.816361,411.603093 C884.176215,402.246318 897.58134,392.912237 910.942298,383.556568 C928.221388,371.45708 945.502687,359.359252 962.70559,347.222124 C964.734495,345.790157 965.976129,345.801227 968.01994,347.24039 C991.544744,363.812909 1015.18935,380.325093 1038.73955,396.884327 C1059.4802,411.468033 1080.17613,426.072773 1100.829,440.700207 C1126.37498,458.793257 1151.87183,476.909555 1177.3499,495.035262 C1182.14198,498.444972 1182.03763,498.448847 1186.70494,495.123273 C1208.07773,479.895818 1229.39862,464.641241 1250.92875,449.491834 C1275.47049,432.223535 1300.23637,415.066495 1324.86479,397.840264 C1348.47848,381.323651 1372.03475,364.777148 1395.62967,348.250572 C1399.40868,345.603065 1399.80452,345.627974 1403.53495,348.250572 C1414.95865,356.281103 1426.41106,364.297796 1437.82703,372.332202 C1452.44673,382.621666 1466.91738,392.986963 1481.72038,403.183434 C1486.35953,406.378377 1490.21528,410.016692 1496,412.611061 L1496,455.232435 C1494.70702,455.241291 1494.15163,454.641824 1493.4549,454.154723 C1487.92137,450.287802 1482.34368,446.443022 1476.85763,442.552853 C1452.22976,425.085839 1427.5903,407.623807 1403.07065,390.103654 C1400.52168,388.282559 1399.01284,388.13034 1396.37002,390.037231 C1380.2895,401.640208 1364.17862,413.229901 1347.82758,424.699479 C1321.03223,443.493844 1294.01937,462.179718 1267.14894,480.936444 C1239.67509,500.113848 1212.2051,519.293466 1184.91564,538.562756 C1182.34404,540.378315 1181.22442,540.066128 1179.12761,538.545596 C1173.12757,534.193234 1167.0127,529.897332 1160.88347,525.608626 C1144.70303,514.286839 1128.45026,503.001031 1112.30184,491.663746 C1092.94967,478.076937 1073.67204,464.453596 1054.36736,450.842987 C1038.66226,439.769732 1022.95219,428.699246 1007.26917,417.614921 C994.080461,408.293017 980.877398,398.97831 967.809596,389.596626 C965.642671,388.040669 964.430297,388.063917 962.289319,389.600501 C946.448957,400.96989 930.524126,412.298873 914.549055,423.60184 C895.877612,436.813912 877.175252,450.009932 858.399464,463.16942 C840.223791,475.908229 821.891327,488.568438 803.713445,501.305586 C786.447053,513.404521 769.314264,525.569325 752.068851,537.678224 C748.087229,540.474629 747.828854,540.424258 743.730743,537.604605 C743.223931,537.256438 742.785025,536.873399 742.284838,536.521358 C733.269876,530.17963 724.256019,523.836794 715.229464,517.501155 C698.977247,506.094125 682.708468,494.694845 666.461221,483.285601 C649.308005,471.240358 632.152582,459.196222 615.034147,447.134374 C599.426764,436.136952 583.84312,425.127353 568.294809,414.100595 C557.127277,406.180769 546.000046,398.239908 534.934096,390.270265 C532.545786,388.549911 531.026453,387.921661 527.999935,390.149597 C516.98036,398.259835 505.583161,406.191286 494.26491,414.158715 C477.641694,425.860773 460.968238,437.538476 444.306376,449.222267 C428.950743,459.99053 413.590693,470.756578 398.215736,481.514877 C381.336354,493.325979 364.429919,505.123797 347.549985,516.934899 C337.197326,524.178872 326.888834,531.444986 316.517405,538.679549 C315.19075,539.605042 314.109219,540.891986 311.590065,539.104102 C295.142412,527.436916 278.516987,515.857741 261.973271,504.238712 C233.794408,484.448556 205.585181,464.672792 177.475328,444.847211 C151.26464,426.361712 125.148359,407.828611 99.0640984,389.280564 C97.3217248,388.041223 96.4400484,387.846936 94.565727,389.209712 C85.8240465,395.566386 76.9344077,401.852208 68.0536022,408.143012 C47.698858,422.559554 27.3744783,436.99104 6.8651508,451.329534 C4.86164197,452.729951 3.70281998,454.820612 0,455.232435" id="Fill-13"></path>
                            <path d="M1496,246.920772 L1496,289.395128 C1493.21309,289.333898 1492.2232,287.903009 1490.77288,286.902379 C1484.80486,282.787331 1478.94119,278.61988 1473.06151,274.460151 C1458.11883,263.887347 1443.19493,253.305164 1428.24839,242.734014 C1419.47524,236.528897 1410.6121,230.366806 1401.9317,224.117008 C1399.92377,222.671225 1398.96039,222.865394 1397.14293,224.244431 C1393.13205,227.286036 1388.74851,230.156089 1384.55047,233.113297 C1360.97322,249.718564 1337.48706,266.369614 1313.81099,282.925787 C1292.03905,298.151464 1270.02309,313.255786 1248.19483,328.453883 C1226.97332,343.228891 1205.84124,358.048579 1184.71303,372.869923 C1182.78405,374.223034 1181.61529,374.465745 1179.41358,372.8622 C1171.08928,366.803261 1162.48175,360.879467 1153.95042,354.919267 C1132.96575,340.259547 1111.94188,325.618582 1090.97543,310.948932 C1071.71822,297.475736 1052.49249,283.986542 1033.29546,270.483559 C1011.89838,255.432192 990.530568,240.364828 969.193116,225.283674 C965.167328,222.438444 965.172848,222.351289 961.22656,225.140254 C946.964602,235.21826 932.814166,245.351428 918.531229,255.419505 C901.05891,267.735964 883.531934,280.025395 865.962448,292.293864 C846.177453,306.108511 826.304677,319.879027 806.497047,333.68209 C787.696416,346.784601 768.897442,359.887664 750.201707,373.042027 C748.309166,374.373074 747.122188,374.25558 745.481398,373.069607 C742.530515,370.936512 739.551475,368.816104 736.537655,366.713899 C715.736828,352.203115 694.872511,337.724324 674.127996,323.185959 C648.58036,305.28164 623.107255,287.339258 597.640224,269.394671 C576.562803,254.542988 555.453361,239.707303 534.598982,224.747504 C531.846849,222.773826 530.654902,222.87422 528.157831,224.673588 C516.331663,233.19273 504.439798,241.682085 492.406599,250.100281 C464.824537,269.395222 437.135372,288.63776 409.5108,307.91174 C379.268251,329.01322 349.047785,350.126285 318.824007,371.236591 C313.749261,374.781269 313.711168,374.71342 308.497297,371.01429 C294.869683,361.347237 281.132756,351.734242 267.385892,342.126212 C249.420562,329.571455 231.379046,317.054759 213.41482,304.49945 C195.847542,292.221603 178.304556,279.932172 160.807945,267.619022 C140.818128,253.552288 120.863644,239.467902 100.956639,225.360348 C96.6553608,222.312124 96.8292669,222.299437 92.6858848,225.264919 C82.3934033,232.630634 72.021422,239.957185 61.6417115,247.279874 C45.9708385,258.334238 30.3452363,269.411219 14.5280614,280.393322 C9.83756511,283.649506 5.980714,287.367391 0,289.946743 L0,246.920772 C1.64962369,246.969866 2.517498,246.243941 3.3953098,245.633303 C17.1758509,236.041821 30.9309963,226.438204 44.6778604,216.830174 C61.0355245,205.397401 77.4047823,193.969042 93.7028215,182.507034 C96.1336424,180.797027 97.6209538,180.523978 100.406764,182.529098 C112.733119,191.400722 125.40839,200.103552 137.948953,208.871473 C155.507397,221.147665 173.06805,233.42165 190.607172,245.707771 C207.948647,257.854333 225.29454,269.998689 242.580807,282.172281 C259.363023,293.991184 276.08727,305.838771 292.803788,317.689667 C298.974419,322.063974 305.101987,326.459794 311.139566,330.898089 C312.979106,332.250097 314.461448,332.335046 316.207134,330.930082 C316.849207,330.413219 317.667946,329.974685 318.355841,329.477128 C327.29848,323.002823 336.101442,316.459014 345.198663,310.061384 C361.189745,298.814505 377.388961,287.671331 393.446844,276.458653 C413.02536,262.787426 432.507813,249.068761 452.104547,235.406912 C477.132121,217.958778 502.239195,200.55036 527.294373,183.115465 C531.352734,180.291748 531.393037,180.304435 535.346502,183.112155 C544.293005,189.46676 553.28478,195.798197 562.311887,202.112534 C578.664582,213.54972 595.075246,224.958773 611.427942,236.395958 C630.689562,249.8675 649.931307,263.349522 669.153729,276.840922 C683.167801,286.676217 697.15979,296.521993 711.118102,306.38487 C722.488249,314.418039 733.848459,322.456724 745.081138,330.557742 C747.183469,332.07358 748.514541,331.978703 750.460633,330.548365 C764.482435,320.244197 779.053559,310.21032 793.561193,300.144449 C824.000283,279.025317 854.25277,257.812411 884.575923,236.635359 C901.139514,225.066889 917.676053,213.484629 934.255654,201.923882 C943.700136,195.33815 953.252827,188.805925 962.648725,182.195923 C964.548443,180.85936 965.779035,180.412551 967.938784,182.069603 C971.157427,184.539183 974.797862,186.816802 978.206974,189.201985 C992.144306,198.954538 1006.0579,208.718675 1019.98916,218.474538 C1034.42061,228.580677 1048.86199,238.681851 1063.2973,248.786886 C1077.23298,258.541094 1091.19571,268.283167 1105.09384,278.056681 C1118.58785,287.546114 1132.03273,297.06037 1145.46325,306.580693 C1156.90848,314.69495 1168.32721,322.821893 1179.69018,330.976418 C1181.30889,332.138119 1182.34073,332.499979 1184.27964,331.105496 C1207.8569,314.141128 1231.68038,297.298667 1255.83732,280.618933 C1274.32712,267.851252 1292.58119,254.965526 1310.93684,242.129996 C1325.48478,231.957112 1340.01726,221.776506 1354.57348,211.607483 C1368.52682,201.859343 1382.54089,192.140438 1396.43351,182.361959 C1398.91677,180.614443 1400.3809,180.74352 1402.79681,182.515308 C1410.01033,187.804193 1417.59153,192.918767 1424.99993,198.11498 C1444.1285,211.533567 1463.1588,225.001247 1482.42428,238.349778 C1486.709,241.31857 1490.33342,244.697212 1496,246.920772" id="Fill-15"></path>
                            <path d="M0,536.689249 L0,494.174756 C2.95198724,493.524891 4.42604857,491.909893 6.27883877,490.620654 C35.5784301,470.237992 64.8277819,449.830483 93.9457379,429.356717 C96.5024338,427.560066 97.9273598,427.901838 100.056743,429.400888 C114.959669,439.88706 129.917251,450.345626 144.850541,460.81689 C169.406084,478.035812 193.913596,495.277924 218.519379,512.472 C249.553614,534.158808 280.560798,555.85942 310.818805,577.927203 C313.328574,579.757535 314.751292,579.375456 316.801728,577.85929 C321.461307,574.41396 326.173887,570.993476 330.959894,567.609432 C350.906096,553.505663 370.839049,539.395821 390.870825,525.335118 C405.191303,515.282925 419.690656,505.320731 434.054197,495.290623 C446.808416,486.384665 459.464917,477.429014 472.200917,468.513118 C490.360027,455.801284 508.580971,443.119266 526.709717,430.391973 C530.911068,427.442461 531.32513,427.381174 535.649596,430.405224 C554.324352,443.460486 573.027264,456.50305 591.666135,469.57598 C614.410846,485.529406 637.106973,501.506573 659.816903,517.477667 C675.827307,528.73683 691.860899,539.98495 707.818303,551.269511 C720.285439,560.086576 732.691293,568.932903 745.022065,577.816224 C747.007355,579.246809 748.336771,579.413002 750.395488,577.895731 C756.32817,573.521156 762.361332,569.192959 768.466817,564.902308 C784.479981,553.649771 800.538417,542.420423 816.605133,531.194389 C831.06584,521.090295 845.583964,511.015464 860.035286,500.905849 C875.689044,489.95533 891.262199,478.963953 906.929207,468.02006 C925.211984,455.248044 943.574814,442.516333 961.860351,429.745974 C965.160151,427.441909 965.590223,427.418719 968.788439,429.673644 C979.275806,437.067301 989.802923,444.442185 1000.33335,451.81486 C1018.0911,464.248417 1035.88363,476.664306 1053.62426,489.106145 C1070.76201,501.125599 1087.87438,513.157201 1104.95692,525.20371 C1123.53175,538.303695 1142.07732,551.418588 1160.59639,564.54618 C1166.57158,568.78217 1172.46783,573.057913 1178.30942,577.358503 C1180.68669,579.108775 1182.56211,579.744283 1185.39154,577.493776 C1189.56032,574.178198 1194.18843,571.062493 1198.68735,567.894887 C1215.68598,555.925677 1232.69014,543.960331 1249.73183,532.012655 C1267.77445,519.363765 1285.8629,506.738064 1303.92981,494.100769 C1318.48161,483.922689 1333.01961,473.736879 1347.583,463.56432 C1363.65193,452.338838 1379.7076,441.107834 1395.8494,429.919896 C1399.52683,427.370683 1399.91273,427.456264 1403.54268,430.033637 C1410.80312,435.190037 1418.03927,440.358033 1425.35326,445.487931 C1443.39368,458.140134 1461.38495,470.817735 1479.58878,483.388221 C1484.90258,487.057167 1489.33691,491.215305 1496,494.174756 L1496,536.689249 C1494.34762,536.735076 1493.55262,536.013986 1492.65659,535.384551 C1488.15325,532.220258 1483.6361,529.063695 1479.15209,525.890015 C1463.90245,515.097408 1448.66552,504.298174 1433.42251,493.501701 C1423.16205,486.234484 1412.84141,478.996529 1402.67867,471.681828 C1400.26772,469.945911 1398.88144,469.889041 1396.47767,471.778452 C1391.80816,475.447397 1386.66771,478.910396 1381.66363,482.429161 C1364.35252,494.600453 1347.03975,506.77064 1329.68392,518.919295 C1313.33068,530.366184 1296.92553,541.786019 1280.53806,553.215792 C1265.66163,563.590432 1250.77582,573.960104 1235.89774,584.334192 C1219.60853,595.691636 1203.38723,607.083863 1187.00196,618.393271 C1181.80079,621.982709 1181.72184,621.824798 1176.57257,618.169103 C1162.7451,608.351568 1148.83482,598.574891 1134.90632,588.808153 C1116.87143,576.160919 1098.79292,563.535771 1080.72049,550.90731 C1064.65708,539.681827 1048.52191,528.491129 1032.51813,517.236384 C1017.21549,506.474695 1002.03542,495.652824 986.812842,484.851935 C980.54118,480.40282 974.230873,475.971375 968.077357,471.465391 C965.760817,469.769228 964.21112,469.818368 962.134184,471.624958 C960.222873,473.28744 957.755063,474.724099 955.559981,476.274497 C936.297257,489.875823 917.074835,503.497024 897.771256,517.077368 C879.771145,529.741718 861.689879,542.365762 843.637872,555.004161 C822.166264,570.036623 800.699625,585.072399 779.208142,600.094922 C769.972899,606.5505 760.642698,612.959145 751.438372,619.430183 C748.94627,621.182111 747.249167,621.687868 744.330305,619.463863 C737.952091,614.603407 731.042774,609.985892 724.317852,605.285555 C705.035805,591.810118 685.699102,578.362839 666.4557,564.868076 C642.603511,548.142212 618.786655,531.398679 595.022799,514.628644 C575.154439,500.607695 555.360611,486.549754 535.588314,472.481873 C531.519464,469.587023 531.533818,469.483773 527.495331,472.317337 C509.159002,485.182664 490.902725,498.086641 472.579094,510.95749 C454.859993,523.403746 437.121018,535.840063 419.34174,548.255952 C401.256609,560.886069 383.087008,573.474776 365.000773,586.104893 C349.029015,597.257494 333.085413,608.425002 317.221863,619.631712 C314.644188,621.452106 312.801335,621.39634 310.261754,619.601897 C293.801954,607.971146 277.231186,596.394505 260.701272,584.798539 C241.271267,571.167399 221.863345,557.525215 202.411256,543.905118 C186.6653,532.881717 170.797885,521.917395 155.111002,510.864731 C136.624506,497.838732 118.231864,484.765801 99.9165144,471.655878 C97.582308,469.984009 96.3285277,469.685303 93.7370506,471.570296 C81.6795602,480.342085 69.4078616,489.012281 57.1367151,497.681925 C39.8786038,509.873646 22.5697008,522.039969 5.2320896,534.193041 C3.79170532,535.202346 2.75710198,536.603116 0,536.689249" id="Fill-17"></path>
                            <path d="M785,884 C787.209432,880.878706 791.560373,878.694131 795.113909,876.19511 C820.21562,858.543085 845.469191,840.965533 870.718345,823.386327 C892.448201,808.257043 914.258681,793.16748 935.987984,778.037645 C944.738462,771.945109 953.460776,765.837126 961.993679,759.639223 C964.646544,757.712274 966.229206,757.26598 969.34704,759.489723 C983.724087,769.741226 998.412586,779.840471 1012.96248,790.008121 C1029.02214,801.23165 1045.06689,812.461246 1061.089,823.70298 C1076.7113,834.663918 1092.29219,845.645819 1107.89958,856.613377 C1119.90485,865.049366 1131.92281,873.478735 1143.93525,881.910311 C1144.82874,882.536997 1145.96134,883.080382 1146,884 L1085.20997,884 C1085.21218,883.067142 1084.02822,882.541962 1083.13914,881.919137 C1068.22147,871.461313 1053.28668,861.012868 1038.38392,850.547872 C1024.08198,840.504897 1009.79053,830.456405 995.536073,820.389708 C986.464755,813.983829 977.455838,807.547057 968.453549,801.106975 C966.675952,799.836501 965.357803,799.255603 963.142297,801.010434 C959.525808,803.876309 955.402934,806.517659 951.553961,809.28258 C920.864336,831.330235 889.5253,853.05572 858.301679,874.839681 C854.018661,877.828025 849.165752,880.571431 845.790031,884 L785,884 Z" id="Fill-19"></path>
                            <path d="M350,884 C351.113078,881.796166 354.096744,880.384895 356.472524,878.724154 C376.740917,864.5557 397.050166,850.407668 417.313038,836.235903 C438.379798,821.502278 459.400733,806.745473 480.457556,792.006882 C496.00365,781.125691 511.645262,770.291965 527.077619,759.353925 C530.041961,757.252749 531.780593,757.814056 534.252994,759.558689 C549.624066,770.406213 565.105563,781.197441 580.539576,792.013505 C598.275938,804.442293 616.010092,816.872736 633.728233,829.310354 C656.354738,845.194189 678.995046,861.071401 701.544806,876.993871 C704.653804,879.188874 709.043725,880.886042 710,884 L650.156066,884 C649.413463,883.305127 648.797295,882.546783 647.908931,881.924212 C630.996335,870.055076 613.988774,858.233405 597.130838,846.338329 C577.379783,832.401131 557.704369,818.425299 538.100179,804.416904 C531.033572,799.366795 531.17105,799.29946 523.847706,804.261261 C523.745564,804.330252 523.625753,804.390964 523.525267,804.461058 C506.316182,816.53827 489.128077,828.62652 471.893594,840.691589 C455.358097,852.268205 438.717145,863.791837 422.25508,875.404328 C418.29471,878.19817 413.828597,880.775657 410.779228,884 L350,884 Z" id="Fill-21"></path>
                            <path d="M1219,883 C1219.76253,880.125502 1223.93769,878.613595 1226.73862,876.635552 C1245.87823,863.119848 1265.32728,849.756216 1284.60835,836.309386 C1307.29651,820.4867 1329.89184,804.618283 1352.57226,788.792842 C1366.92725,778.776455 1381.34688,768.792024 1395.77867,758.814206 C1399.33109,756.357356 1399.73335,756.438902 1403.1084,758.797676 C1421.36336,771.555223 1439.67523,784.284669 1457.94622,797.034502 C1469.49033,805.091029 1480.98139,813.173453 1492.54815,821.218962 C1493.50795,821.886757 1494.17323,822.842719 1496,822.942448 L1496,865.368425 C1494.08372,865.458787 1493.37147,864.549108 1492.39122,863.862578 C1483.38282,857.549924 1474.34126,851.252696 1465.37154,844.921308 C1444.44107,830.14715 1423.49127,815.382359 1402.70558,800.538226 C1400.20745,798.754682 1399.07746,798.679197 1396.53016,800.505167 C1379.24604,812.896307 1361.85197,825.234553 1344.32307,837.505578 C1326.29411,850.125378 1307.98665,862.60688 1290.00466,875.249821 C1286.45777,877.743036 1282.09751,879.910617 1279.82759,883 L1219,883 Z" id="Fill-29"></path>
                            <path d="M0,822.897032 C5.73447942,820.603745 9.40569557,817.152511 13.811818,814.145157 C28.6547151,804.015326 43.1859677,793.72669 57.8476248,783.504223 C69.89401,775.104144 82.0321204,766.750383 93.9492063,758.287444 C96.4992759,756.477187 98.0083203,756.656393 100.38157,758.321631 C131.905735,780.433458 163.514442,802.503929 195.078392,824.596457 C221.43169,843.041451 247.765096,861.496922 274.055954,879.973347 C275.305848,880.852284 276.992817,881.665604 277,883 L216.172413,883 C215.707709,880.668667 212.337086,879.526159 210.099214,877.946388 C194.256733,866.762273 178.330264,855.618411 162.433633,844.460764 C148.034995,834.355745 133.623648,824.257344 119.249875,814.140195 C112.958414,809.711874 106.652034,805.288516 100.541261,800.774728 C97.8127137,798.758798 95.6035743,798.63804 93.1944078,800.840897 C92.7755664,801.223571 92.229636,801.559375 91.7339887,801.912273 C80.5291541,809.89108 69.3851012,817.899663 58.1045657,825.841526 C40.5347794,838.210055 22.8887397,850.54164 5.22115013,862.861646 C3.7828335,863.864649 2.77717224,865.283961 0,865.355092 L0,822.897032 Z" id="Fill-31"></path>
                        </g>
                    </g>
                </g>
            </g>
        </g>
    </g>
</svg>