<?xml version="1.0" encoding="UTF-8" standalone="no"?>
<svg width="32px" height="24px" viewBox="0 0 32 24" version="1.1" xmlns="http://www.w3.org/2000/svg" xmlns:xlink="http://www.w3.org/1999/xlink">
    <!-- Generator: Sketch 46.2 (44496) - http://www.bohemiancoding.com/sketch -->
    <title>12-e-commerce-pay-money-creditcard-card copy</title>
    <desc>Created with Sketch.</desc>
    <defs></defs>
    <g id="Page-1" stroke="none" stroke-width="1" fill="none" fill-rule="evenodd" stroke-linecap="round" stroke-linejoin="round">
        <g id="Freebie-(E-commerce)" transform="translate(-483.000000, -155.000000)" stroke="#263238">
            <g id="12-e-commerce-pay-money-creditcard-card-copy" transform="translate(484.000000, 156.000000)">
                <path d="M27.4528792,2.74528792 L27.4528792,1.64673932 C27.4528792,0.735698773 26.7162672,0 25.8076103,0 L1.64526885,0 C0.737845804,0 0,0.737270306 0,1.64673932 L0,17.5702761 C0,18.4813166 0.736611955,19.2170154 1.64526885,19.2170154 L2.74528792,19.2170154 L2.74528792,4.39202724 C2.74528792,3.48255822 3.48313372,2.74528792 4.39055677,2.74528792 L27.4528792,2.74528792 L27.4528792,2.74528792 Z" id="Layer-1" fill="#EAF0F5"></path>
                <rect id="Layer-2" fill="#91E4FF" x="2.74528792" y="2.74528792" width="27.4528792" height="19.2170154" rx="2"></rect>
                <path d="M22.9231541,14.3285598 C23.4003773,13.9517997 24.006144,13.7264396 24.6653561,13.7264396 C26.2048626,13.7264396 27.4528792,14.9555468 27.4528792,16.4717275 C27.4528792,17.9879081 26.2048626,19.2170154 24.6653561,19.2170154 C24.006144,19.2170154 23.4003773,18.9916553 22.9231541,18.6148952 C22.4459309,18.9916553 21.8401642,19.2170154 21.1809522,19.2170154 C19.6414457,19.2170154 18.393429,17.9879081 18.393429,16.4717275 C18.393429,14.9555468 19.6414457,13.7264396 21.1809522,13.7264396 C21.8401642,13.7264396 22.4459309,13.9517997 22.9231541,14.3285598 L22.9231541,14.3285598 Z" id="Layer-3" fill="#F7E07E"></path>
                <path d="M5.49057583,10 L27.4528792,10" id="Layer-4" stroke-width="2" fill="#E3F2FD" stroke-dasharray="1,6"></path>
                <path d="M5.49057583,18.5 L8.78492133,18.5" id="Layer-5" fill="#E3F2FD"></path>
                <path d="M10.4320941,18.5 L13.7264396,18.5" id="Layer-6" fill="#E3F2FD"></path>
                <path d="M5.49057583,15.5 L13.7264396,15.5" id="Layer-7" fill="#E3F2FD"></path>
                <path d="M5.49057583,6 L7.96133496,6" id="Layer-8" stroke-width="2" fill="#E3F2FD"></path>
            </g>
        </g>
    </g>
</svg>