<?xml version="1.0" encoding="UTF-8" standalone="no"?>
<svg width="25px" height="25px" viewBox="0 0 25 25" version="1.1" xmlns="http://www.w3.org/2000/svg" xmlns:xlink="http://www.w3.org/1999/xlink">
    <!-- Generator: Sketch 46.2 (44496) - http://www.bohemiancoding.com/sketch -->
    <title>13-e-commerce-discount-shopping copy</title>
    <desc>Created with Sketch.</desc>
    <defs></defs>
    <g id="Page-1" stroke="none" stroke-width="1" fill="none" fill-rule="evenodd" stroke-linecap="round" stroke-linejoin="round">
        <g id="Freebie-(E-commerce)" transform="translate(-450.000000, -155.000000)" stroke="#263238">
            <g id="13-e-commerce-discount-shopping-copy" transform="translate(451.000000, 156.000000)">
                <path d="M9.18359638,2.12249129 C9.27059353,0.935692779 10.2558876,0 11.4585549,0 C12.6534044,0 13.6336975,0.92356747 13.7317033,2.09937914 C13.769279,2.10821604 13.8067709,2.11727175 13.8441778,2.12654488 C14.4726695,1.11180126 15.7849093,0.746237471 16.8504579,1.3158478 C17.9024173,1.87819382 18.3372266,3.15063493 17.8811671,4.23306099 C17.9099364,4.25814784 17.9385574,4.28340105 17.9670291,4.30881959 C18.9824206,3.70845128 20.3027251,3.98481792 20.9900129,4.97164741 C21.678242,5.95982843 21.4835089,7.30403145 20.5718764,8.0574009 C20.5859789,8.09355004 20.5998737,8.12980403 20.6135593,8.16616137 C21.794394,8.11019441 22.8363363,8.97885066 22.9827623,10.1778108 C23.1285629,11.3716499 22.3340521,12.4636824 21.1828271,12.702919 C21.1786736,12.7412067 21.1743006,12.7794281 21.1697091,12.8175818 C22.2470493,13.3215635 22.767167,14.5858134 22.3348914,15.7179883 C21.9076593,16.8369539 20.7032169,17.4259525 19.5784268,17.1014322 C19.5570078,17.1333111 19.535407,17.1650563 19.5136258,17.1966664 C20.227474,18.1366135 20.1148095,19.4857281 19.2253133,20.290943 C18.3326568,21.0990187 16.9799241,21.067575 16.1252219,20.2470943 C16.0913662,20.2654779 16.0573899,20.2836656 16.0232945,20.3016561 C16.2210778,21.472354 15.490689,22.6166182 14.3256593,22.9086555 C13.1635338,23.1999648 11.9872888,22.5384215 11.6121711,21.4165107 C11.5767193,21.4168927 11.5412221,21.4170842 11.5056803,21.4170842 C11.50311,21.4170842 11.5005399,21.4170832 11.49797,21.4170811 C11.1309947,22.5523907 9.94695147,23.2245501 8.77721343,22.9313326 C7.61982994,22.6412119 6.89140082,21.5100141 7.07580386,20.3473796 C7.04151155,20.3297307 7.00733705,20.3118833 6.97328187,20.2938388 C6.11958078,21.1299671 4.75505104,21.1671048 3.85659512,20.3537791 C2.97291596,19.5538301 2.85594126,18.217072 3.55438355,17.2779957 C3.53229629,17.2466244 3.51038808,17.2151167 3.48866042,17.183474 C2.35752998,17.5223199 1.13994853,16.932954 0.709891067,15.8065885 C0.280440954,14.6818137 0.790974595,13.4266849 1.85401954,12.9161616 C1.84903971,12.8780286 1.84427822,12.8398265 1.83973639,12.8015565 C0.676348408,12.5719852 -0.129513555,11.4735007 0.0172376658,10.2718778 C0.162706499,9.0807552 1.19202202,8.21563226 2.36330117,8.25924991 C2.37661803,8.22274905 2.39014467,8.1863509 2.40387991,8.15005616 C1.47688998,7.39957216 1.27508755,6.04426032 1.96780721,5.04963161 C2.65059585,4.06926216 3.95814056,3.79008426 4.97081106,4.37512595 C4.99902081,4.34942498 5.02738113,4.32388802 5.05589053,4.29851657 C4.58496322,3.21150808 5.01854145,1.92594364 6.07744788,1.35988398 C7.13605207,0.793985877 8.4381426,1.1511123 9.0713532,2.15082419 C9.10868141,2.14116242 9.14609627,2.13171765 9.18359638,2.12249129 L9.18359638,2.12249129 Z" id="Layer-1" fill="#E7BCFF"></path>
                <circle id="Layer-2" cx="8.625" cy="8.625" r="1.725"></circle>
                <circle id="Layer-3" cx="14.375" cy="14.375" r="1.725"></circle>
                <path d="M15.985,7.015 L7.015,15.985" id="Layer-4" fill="#E3F2FD"></path>
            </g>
        </g>
    </g>
</svg>