<?xml version="1.0" encoding="UTF-8" standalone="no"?>
<svg width="28px" height="29px" viewBox="0 0 28 29" version="1.1" xmlns="http://www.w3.org/2000/svg" xmlns:xlink="http://www.w3.org/1999/xlink">
    <!-- Generator: Sketch 46.2 (44496) - http://www.bohemiancoding.com/sketch -->
    <title>22-e-commerce-cart-delivery copy</title>
    <desc>Created with Sketch.</desc>
    <defs></defs>
    <g id="Page-1" stroke="none" stroke-width="1" fill="none" fill-rule="evenodd" stroke-linecap="round" stroke-linejoin="round">
        <g id="Freebie-(E-commerce)" transform="translate(-527.000000, -155.000000)" stroke="#263238">
            <g id="22-e-commerce-cart-delivery-copy" transform="translate(527.354251, 156.000000)">
                <path d="M2.67326733,4.54455446 L25.6970201,4.54455446 L25.6970201,4.54455446 C26.2493049,4.54455446 26.6970201,4.99226971 26.6970201,5.54455446 C26.6970201,5.58309185 26.6947924,5.62159702 26.6903482,5.6598773 L25.2562027,18.0128239 L25.2562027,18.0128239 C25.1391109,19.0213887 24.2848856,19.7821782 23.2695466,19.7821782 L4.46639878,19.7821782 L2.67326733,4.54455446 Z" id="Layer-1" fill="#91E4FF"></path>
                <rect id="Layer-2" fill="#DFBB9A" x="5.34653465" y="1.69306931" width="5.34653465" height="2.85148515" rx="1"></rect>
                <rect id="Layer-3" fill="#DFBB9A" x="10.6930693" y="0.267326733" width="13.3663366" height="4.27722772" rx="1"></rect>
                <polyline id="Layer-4" points="22.2929349 21.6534653 4.69375097 21.6534653 4.39353052 19.1933545"></polyline>
                <polyline id="Layer-5" fill="#E3F2FD" points="2.68305707 4.91500039 2.2926911 1.90600828 0.00978974725 0.252707302"></polyline>
                <path d="M8.01980198,8.5 L21.3861386,8.5" id="Layer-6" fill="#E3F2FD" stroke-dasharray="1,3"></path>
                <path d="M8.01980198,10.5 L21.3861386,10.5" id="Layer-7" fill="#E3F2FD" stroke-dasharray="1,3"></path>
                <path d="M8.01980198,13.5 L21.3861386,13.5" id="Layer-8" fill="#E3F2FD" stroke-dasharray="1,3"></path>
                <path d="M8.01980198,15.5 L21.3861386,15.5" id="Layer-9" fill="#E3F2FD" stroke-dasharray="1,3"></path>
                <path d="M5.34653465,27 C6.82293943,27 8.01980198,25.8031374 8.01980198,24.3267327 C8.01980198,22.8503279 6.82293943,21.6534653 5.34653465,21.6534653 C3.87012988,21.6534653 2.67326733,22.8503279 2.67326733,24.3267327 C2.67326733,25.8031374 3.87012988,27 5.34653465,27 Z" id="Layer-10" fill="#E3F2FD"></path>
                <path d="M5.34653465,25.1287129 C5.78945609,25.1287129 6.14851485,24.7696541 6.14851485,24.3267327 C6.14851485,23.8838112 5.78945609,23.5247525 5.34653465,23.5247525 C4.90361322,23.5247525 4.54455446,23.8838112 4.54455446,24.3267327 C4.54455446,24.7696541 4.90361322,25.1287129 5.34653465,25.1287129 Z" id="Layer-11" stroke-width="0.5" fill="#263238"></path>
                <circle id="Layer-12" fill="#E3F2FD" cx="22.1881188" cy="24.3267327" r="2.67326733"></circle>
                <path d="M22.1881188,25.1287129 C22.6310402,25.1287129 22.990099,24.7696541 22.990099,24.3267327 C22.990099,23.8838112 22.6310402,23.5247525 22.1881188,23.5247525 C21.7451974,23.5247525 21.3861386,23.8838112 21.3861386,24.3267327 C21.3861386,24.7696541 21.7451974,25.1287129 22.1881188,25.1287129 Z" id="Layer-13" stroke-width="0.5" fill="#263238"></path>
            </g>
        </g>
    </g>
</svg>