<?xml version="1.0" encoding="UTF-8" standalone="no"?>
<svg width="990px" height="454px" viewBox="0 0 990 454" version="1.1" xmlns="http://www.w3.org/2000/svg" xmlns:xlink="http://www.w3.org/1999/xlink">
    <!-- Generator: Sketch 47.1 (45422) - http://www.bohemiancoding.com/sketch -->
    <title>Group 7</title>
    <desc>Created with Sketch.</desc>
    <defs>
        <rect id="path-1" x="0.276819486" y="0" width="989.723181" height="454"></rect>
    </defs>
    <g id="Page-1" stroke="none" stroke-width="1" fill="none" fill-rule="evenodd">
        <g id="home_page-copy-8" transform="translate(-440.000000, -822.000000)">
            <g id="Group-7" transform="translate(440.000000, 822.000000)">
                <g id="Page-1">
                    <mask id="mask-2" fill="white">
                        <use xlink:href="#path-1"></use>
                    </mask>
                    <use id="Mask" fill="#45B6F4" xlink:href="#path-1"></use>
                    <path d="M250.214708,170.40849 C249.65681,171.042466 249.60102,171.098256 249.54523,171.155736 C249.308546,171.407636 249.06679,171.64432 248.811509,171.848883 C248.459864,172.117689 248.16908,172.303655 247.854628,172.428759 C193.398654,194.136086 154.367731,232.827199 123.363785,281.736308 C92.4815625,330.450998 72.3363518,382.885012 61.5384782,439.229388 C60.8520939,442.808392 60.7185363,446.492214 60.0997761,450.089814 C59.484397,453.658675 58.5816157,457.178508 57.7295524,461.065201 C51.5064472,462.108302 49.2444221,459.819227 50.7693449,453.780398 C58.4007213,423.560891 65.4150281,393.168943 73.8257719,363.167524 C82.9719275,330.537219 101.778182,302.654124 119.50076,274.224964 C135.394107,248.73238 152.844499,224.7681 176.776658,206.22558 C196.183076,191.187677 216.669788,177.85221 240.167462,169.98584 C240.600256,169.840448 241.041503,169.725487 241.489513,169.630814 C242.196184,169.50909 242.527542,169.449919 242.865662,169.411035 C243.572334,169.346792 243.932432,169.31298 244.297602,169.296074 C246.686423,169.196329 248.985641,169.358627 251.208782,169.287621 C247.415072,162.570861 240.987404,161.53114 233.900401,162.657081 C217.195565,165.307945 202.139066,171.847192 188.69371,182.131123 C179.550935,189.123452 170.622867,196.453901 161.048989,202.803802 C153.584983,207.750502 147.155624,204.433542 145.924866,195.491949 C145.279056,190.812363 145.899507,185.958645 145.945153,181.182695 C146.041517,171.348465 140.20556,167.277496 131.86244,172.357754 C126.799088,175.441412 121.904796,180.002655 118.917503,185.069389 C110.310649,199.660973 105.352114,215.608419 102.408776,232.434979 C100.767202,241.814438 97.2321535,251.374791 92.3496956,259.537016 C87.1527857,268.2284 79.1444051,266.967211 73.9474952,258.076336 C71.3913054,253.706131 69.2205727,249.09755 66.4699636,244.860902 C62.0186091,238.005512 53.736351,237.452685 49.0685995,244.122109 C45.9325332,248.603894 43.2072831,253.831235 41.9782156,259.114366 C34.9926491,289.190171 44.7592556,318.221185 48.8183904,347.499027 C50.356838,358.591065 50.4109373,367.919805 43.1582557,376.694029 C36.0239162,385.324551 27.9360773,382.340639 19.3748699,379.441257 C12.3436571,377.057508 7.86863416,379.945056 8.07826878,387.282268 C8.30819062,395.317698 9.40708178,403.591503 11.7840679,411.246548 C16.2557096,425.657237 21.9175349,439.701066 28.0273698,456.485361 C23.8904672,453.668818 20.3943027,452.458347 18.8896671,450.0205 C15.6656896,444.798231 12.9438207,439.117809 10.9539824,433.30552 C5.80609999,418.267617 -1.8844475,403.819734 -0.068741189,387.052346 C1.42744138,373.246892 8.86947041,368.149727 21.8346954,372.457381 C23.7028104,373.077831 25.5269697,373.88763 27.4373497,374.311971 C34.0290061,375.779413 37.5031927,371.586721 39.8260796,366.582539 C42.6798154,360.440583 45.2647455,353.860761 40.5631819,347.478739 C39.7533837,346.379848 36.8573828,346.302081 35.0399859,346.562433 C30.7272608,347.177812 26.4821597,348.281775 20.6022467,349.529439 C20.6022467,344.244618 20.9403671,339.546436 20.5143355,334.919259 C20.0274421,329.624294 19.5084274,322.395281 12.9657985,322.630274 C7.25832692,322.836528 1.42744138,326.672503 -3.78299329,329.83731 C-5.67646729,330.986919 -6.62658549,334.787392 -6.80747988,337.458543 C-7.56656007,348.628349 -8.50822526,359.850563 -8.14981769,371.011916 C-7.84043756,380.722733 -7.45498036,381.255272 -17.2148244,382.683831 C-20.438802,391.385358 -23.4142611,400.545039 -21.2773405,409.801083 C-19.8369478,416.032641 -16.6366386,421.684323 -13.0762313,427.084105 C-8.00780714,432.132242 -3.19973568,437.335914 -1.68664709,444.877689 C-0.271613402,447.560674 1.00479094,450.290996 2.19328399,453.058511 C21.1043555,456.223318 39.9089191,460.487015 58.5765439,466.125172 C80.1249541,472.632298 101.54826,479.63308 122.788981,487.110612 C123.43479,486.20614 124.222611,485.325337 125.204851,484.490179 C125.678219,484.087816 126.109323,483.64826 126.516758,483.183344 C127.597052,481.03628 128.6858,478.892597 129.722139,476.723555 C129.999397,476.143678 130.242844,475.560421 130.494744,474.980544 C132.516703,467.325499 132.249588,457.837842 133.759296,451.391578 C132.793962,445.440659 130.45755,439.680779 126.760204,434.284378 C121.345207,426.382506 123.274183,422.54653 129.22172,417.819608 C131.204796,416.242276 133.74408,415.028424 135.057678,413.014917 C137.461713,409.324334 139.143862,405.163763 141.126938,401.199301 C136.988345,399.258491 132.998525,396.724279 128.646916,395.616934 C126.35446,395.033677 122.868439,396.254291 120.893816,397.858672 C114.839771,402.778324 108.567638,407.711499 103.646297,413.682705 C95.8931969,423.085832 96.6218463,426.145821 106.265039,433.273398 C125.127083,447.210719 119.039226,463.732971 102.983581,475.000831 C101.237189,476.226518 97.4181197,474.503795 94.5610027,474.148768 C94.5001411,473.22739 94.44097,472.306012 94.3801083,471.384634 C95.0986141,470.956912 95.8272635,470.546096 96.5356256,470.101468 C113.29287,459.599449 113.76793,449.230989 98.0487142,437.285196 C97.1526953,436.603884 96.2127207,435.956383 95.4198284,435.165182 C90.0504772,429.792449 88.2144837,423.630206 92.4257727,416.87118 C100.797633,403.432586 110.760349,392.332095 127.649461,389.064162 C143.277384,386.039675 157.493654,379.405754 168.6922,367.434603 C177.892455,357.600372 175.608452,346.320677 163.2417,341.627567 C159.314432,340.136456 155.267131,338.946272 151.231665,337.75947 C140.366167,334.562542 139.196271,330.944654 145.705088,321.724112 C153.304343,310.95836 164.068404,305.465595 176.485874,302.567903 C185.789256,300.398861 192.861043,295.230691 197.158553,286.71344 C202.154281,276.813276 197.582894,268.456631 186.692037,267.225873 C184.183184,266.941852 181.510343,267.538634 179.124904,266.918183 C175.606761,266.005258 171.05228,265.22251 169.304198,262.727182 C168.163042,261.097442 170.244173,255.351086 172.538319,253.481281 C185.533975,242.879517 198.445101,231.983588 212.515979,222.947322 C227.12616,213.562791 243.847902,207.135123 252.632269,190.737977 C256.496985,183.529251 257.949212,176.095675 251.609455,169.277478 C250.872353,169.640957 250.544376,170.024724 250.214708,170.40849 Z" fill="#82D1F7" mask="url(#mask-2)"></path>
                </g>
                <g id="Page-1" transform="translate(745.722109, 0.000000)">
                    <path d="M54.5355026,57.1086809 C52.8860005,53.8203929 51.2384414,50.5301567 49.2003641,46.4626535 C44.8638641,54.7379187 45.3320973,55.9184298 54.5355026,57.1086809 M139.853032,176.801978 C145.059941,178.430537 149.239068,175.130561 154.552834,174.185763 C149.377012,170.540984 144.960854,167.429967 139.853032,163.833889 C139.853032,168.396194 136.728887,172.243569 139.853032,176.801978 M222.417505,228.723033 C219.70525,227.63408 216.992995,226.543179 213.258786,225.04319 C212.19409,230.421723 210.725276,234.896366 210.569845,239.413866 C210.385272,244.75149 206.66855,247.188485 203.569662,244.963826 C195.137579,238.909324 186.961955,243.533966 178.695016,243.783315 C177.531233,243.81838 176.369393,243.925522 175.209496,244.0463 C169.701441,244.624867 163.315207,244.882008 160.867183,239.466463 C158.2851,233.758712 157.047488,226.8198 162.413712,221.127633 C162.876117,220.636728 163.095662,219.915954 163.585267,219.012064 C162.559428,217.889994 161.547189,216.645198 160.395064,215.544557 C154.41489,209.821221 156.270337,202.007641 164.193387,199.032987 C167.533191,197.780398 170.68648,196.03106 174.918064,194.038217 C169.882129,189.05124 165.881746,184.868803 161.599647,180.998051 C160.48055,179.98702 158.485216,179.950007 156.894,179.464945 C156.69777,180.922078 156.478225,182.375314 156.31308,183.836343 C156.087707,185.811653 156.660855,188.562283 155.572844,189.639548 C150.060904,195.094054 144.164275,200.162849 138.283188,205.227748 C137.53518,205.8706 135.924536,206.166702 134.990012,205.835535 C124.519852,202.118679 113.977805,198.549873 103.725246,194.291462 C98.8622266,192.271347 97.5954712,187.547355 100.676873,183.230503 C104.354738,178.077942 108.939926,173.577975 113.519286,168.353337 C108.735924,156.906666 109.559704,155.821609 127.210735,153.19955 C120.873073,145.913888 114.861813,139.006145 108.708724,131.936715 C101.106249,138.789913 94.1624087,145.163893 87.086453,151.387874 C80.6982755,157.006016 77.4089859,156.517058 73.9098656,148.654777 C71.9592177,144.27364 69.2333622,142.931441 64.8308044,141.645736 C59.7210396,140.155487 55.2116235,136.463955 50.6186638,133.456185 C49.7540839,132.891254 49.375223,131.054254 49.3616228,129.79777 C49.3130509,125.338711 49.4976242,120.877704 49.6549972,116.418645 C49.6783117,115.74852 49.8279132,114.733592 50.2631175,114.482295 C56.4822647,110.897905 54.811391,103.066793 58.5727996,98.6661748 C62.3788944,94.2149081 68.0987224,91.4116815 73.6806062,87.3811909 C68.8972446,79.2130677 63.4027902,69.8332649 58.2289105,61.0008608 C54.0458977,60.5878768 50.3777472,60.2255417 46.4764514,59.8417782 C45.2543822,63.1612349 44.7764346,67.9202916 42.1593802,70.4975459 C39.9658728,72.6559719 35.2757693,72.2663643 29.9017733,73.3728499 C27.1992323,78.5448907 21.8271791,83.1714809 13.2124654,82.4487588 C7.97252787,82.0085022 3.91580204,79.6085194 3.13282287,74.4345306 C2.23715688,68.502755 2.062298,62.3333188 2.63544653,56.3684265 C2.84722005,54.1612995 6.0801663,52.2483262 8.520419,49.5522417 C7.01663271,47.8301761 4.5686085,45.4866865 2.66847543,42.7574853 C-1.94197016,36.1400003 -0.611099859,30.9543232 6.91754601,28.6790149 C14.6385366,26.3472135 21.90878,20.218686 32.1302525,26.0257872 C26.8942007,16.5797511 22.5188431,8.69019736 18.1454285,0.798695565 C18.5981186,0.531814364 19.0508088,0.264933163 19.5054419,0 C27.4168344,12.0934197 35.3301698,24.1848913 43.2027048,36.2198699 C45.9382747,35.5283164 47.9025227,35.0315667 50.6400355,34.3380652 C50.6400355,36.4867511 50.6264353,38.1601157 50.6439212,39.8354283 C50.6594642,41.5477537 50.0707727,43.6438425 50.836266,44.9100672 C58.6485718,57.8138707 66.7795093,70.5248184 74.5918152,83.4305699 C76.6512641,86.8357403 78.5028253,88.2792364 82.2661768,85.8169164 C89.7773367,80.9039647 93.7718905,87.0656088 98.1083905,91.3551884 C102.217574,95.4187955 100.435956,99.9401917 98.2949067,104.241459 C97.6809577,105.476516 96.6318045,106.485599 95.839111,107.63689 C93.0977124,111.616731 96.4103166,115.520599 98.6854248,115.049174 C107.892716,113.142045 106.725047,120.733549 109.695705,125.075726 C116.062511,134.385399 123.190924,143.184686 130.278537,151.972286 C132.440959,154.654734 135.318358,156.859913 138.160787,158.866392 C150.342621,167.463084 161.927993,176.694835 172.048436,187.759691 C173.495879,189.341498 177.212601,189.96487 179.512967,189.435004 C189.056376,187.233721 196.750166,193.697311 195.096778,203.024517 C194.28077,207.629678 198.034407,212.174451 201.242096,210.09005 C209.299204,204.85762 211.218766,211.377703 214.445884,216.049098 C217.235854,220.087381 220.251198,223.965925 223.167456,227.916546 C222.918768,228.185375 222.668136,228.454204 222.417505,228.723033" id="Fill-1" fill="#90D7F6"></path>
                    <path d="M235.166795,236.412614 C235.738525,236.49228 236.310254,236.573938 236.881984,236.653605 C239.346003,238.513818 241.811947,240.374032 244.277891,242.232253 L243.850537,242.770002 C235.950276,238.019886 228.05194,233.267777 220.151679,228.515669 C220.400006,228.240819 220.648333,227.96597 220.894735,227.69112 C225.651447,230.598949 230.408159,233.504785 235.166795,236.412614" id="Fill-6" fill="#FAB8B9"></path>
                </g>
            </g>
        </g>
    </g>
</svg>